<svg width="1280" height="640" viewBox="0 0 1280 640" fill="none" xmlns="http://www.w3.org/2000/svg">
<path d="M312.9 487.42C326.994 487.42 338.42 475.994 338.42 461.9C338.42 447.806 326.994 436.38 312.9 436.38C298.806 436.38 287.38 447.806 287.38 461.9C287.38 475.994 298.806 487.42 312.9 487.42Z" fill="#EAA700"/>
<path d="M310 543.64C248.62 543.64 196.54 502.22 167.16 429.98C141.36 366.52 163.96 295.24 181.16 272.88L195.42 254.38L197.42 277.66C199.42 300.52 215.54 327.8 231.22 334.92C233.428 336.003 235.861 336.551 238.32 336.52C218.82 290.38 222.46 241.7 232 212.82C250 159.02 294.52 120.98 320.1 108.52L333.62 102L333.28 116.92C332.34 159.98 335.06 195.38 351.48 228.22C362.12 249.5 376.38 270.38 388.94 288.8C392.4 293.86 395.76 298.8 398.94 303.54C422.94 339.42 423.22 376.74 415.58 399.68C411.15 412.63 404.557 424.735 396.08 435.48C385.58 448.74 373.14 458.26 360.08 462.98L353.88 445.84C375.04 438.18 391.74 413.54 398.28 393.84C404.56 374.98 404.06 343.98 383.78 313.56C380.64 308.86 377.32 304 373.9 299C361 280.1 346.38 258.68 335.18 236.28C319.3 204.5 315.02 171.4 314.9 132.8C292.48 148.36 262.58 178.96 249.4 218.5C247.4 224.5 230.38 279.7 258.76 337.24L262.14 344.12L256 348.72C251.404 352.108 245.964 354.163 240.276 354.661C234.589 355.158 228.874 354.078 223.76 351.54C206.98 344 192.9 324.16 185.24 304C174.48 331.86 166.2 379.34 184.02 423.16C210.46 488.16 256.36 525.44 310.02 525.44C364.96 525.44 413.58 487.68 440.02 424.46C452.34 395.08 454.36 349.6 444.86 316.32C437.78 291.56 427.22 271.34 409.06 242.82C404.5 252.52 398.2 262.46 391.8 266.82L381.68 251.66C386.94 248.16 396.06 229.66 397.84 220.84L402.16 199L414.4 217.6C439.26 255.44 453.52 280.34 462.4 311.42C473.1 348.86 470.8 398.28 456.84 431.6C443.1 464.4 422.84 492.1 398.44 511.6C372.2 532.54 341.6 543.64 310 543.64Z" fill="#EE4C2C"/>
<path d="M617.867 190.938C610.039 190.938 603.289 192.836 597.617 196.633C591.992 200.43 587.797 205.539 585.031 211.961C582.266 218.383 580.883 225.766 580.883 234.109C580.883 240.344 581.633 246.039 583.133 251.195C584.633 256.305 586.883 260.805 589.883 264.695C592.883 268.539 596.773 271.539 601.555 273.695C606.383 275.805 611.914 276.859 618.148 276.859C626.164 276.859 634.461 274.773 643.039 270.602L645.078 280.938C638.094 285.344 628.648 287.547 616.742 287.547C608.914 287.547 601.883 286.258 595.648 283.68C589.461 281.055 584.328 277.375 580.25 272.641C576.219 267.859 573.148 262.188 571.039 255.625C568.93 249.016 567.875 241.68 567.875 233.617C567.875 225.836 569.023 218.664 571.32 212.102C573.617 205.539 576.852 199.914 581.023 195.227C585.242 190.492 590.492 186.812 596.773 184.188C603.055 181.562 610.039 180.25 617.727 180.25C629.398 180.25 639.242 182.828 647.258 187.984L642.477 197.898C634.789 193.258 626.586 190.938 617.867 190.938ZM669.336 247.609C669.336 256.75 671.352 264.086 675.383 269.617C679.461 275.102 685.391 277.844 693.172 277.844C700.859 277.844 706.648 275.102 710.539 269.617C714.477 264.133 716.445 256.75 716.445 247.469C716.445 238.047 714.5 230.641 710.609 225.25C706.766 219.812 700.883 217.094 692.961 217.094C685.273 217.094 679.414 219.859 675.383 225.391C671.352 230.922 669.336 238.328 669.336 247.609ZM728.609 247.398C728.609 259.352 725.422 269.055 719.047 276.508C712.672 283.914 703.859 287.617 692.609 287.617C681.781 287.617 673.156 283.867 666.734 276.367C660.359 268.867 657.172 259.234 657.172 247.469C657.172 235.469 660.383 225.766 666.805 218.359C673.227 210.953 682.039 207.25 693.242 207.25C704.258 207.25 712.906 210.977 719.188 218.43C725.469 225.836 728.609 235.492 728.609 247.398ZM775.367 277.492C783.102 277.492 788.844 275.008 792.594 270.039C796.391 265.07 798.289 257.969 798.289 248.734C798.289 238.328 796.461 230.5 792.805 225.25C789.195 219.953 783.336 217.305 775.227 217.305C771.617 217.305 768.43 218.078 765.664 219.625C762.898 221.172 760.672 223.328 758.984 226.094C757.297 228.859 756.008 232.047 755.117 235.656C754.273 239.219 753.852 243.133 753.852 247.398C753.852 253.398 754.578 258.602 756.031 263.008C757.531 267.414 759.922 270.93 763.203 273.555C766.484 276.18 770.539 277.492 775.367 277.492ZM798.5 274.82C795.969 278.711 792.594 281.805 788.375 284.102C784.156 286.398 779.445 287.547 774.242 287.547C764.07 287.547 756.102 283.938 750.336 276.719C744.57 269.453 741.688 259.586 741.688 247.117C741.688 235.211 744.617 225.602 750.477 218.289C756.336 210.93 764.188 207.25 774.031 207.25C779.141 207.25 783.945 208.375 788.445 210.625C792.992 212.828 796.391 215.805 798.641 219.555L798.43 212.875V178.914L810.031 178.211V286H800.047L798.5 274.82ZM874.93 223.141C871.508 219.016 866.797 216.953 860.797 216.953C854.797 216.953 849.898 219.086 846.102 223.352C842.305 227.57 840.078 233.359 839.422 240.719H880.133C880.133 233.078 878.398 227.219 874.93 223.141ZM863.117 287.617C851.914 287.617 843.078 284.055 836.609 276.93C830.188 269.805 826.977 260.055 826.977 247.68C826.977 235.727 830.094 226.047 836.328 218.641C842.562 211.188 850.766 207.391 860.938 207.25C870.5 207.25 878.07 210.531 883.648 217.094C889.273 223.609 892.086 232.328 892.086 243.25C892.086 243.812 892.062 244.844 892.016 246.344C892.016 247.844 892.016 248.922 892.016 249.578H839.07C839.211 258.344 841.461 265.188 845.82 270.109C850.227 274.984 856.133 277.422 863.539 277.422C871.695 277.422 879.875 275.266 888.078 270.953L889.906 280.445C882.078 285.227 873.148 287.617 863.117 287.617Z" fill="#EE4C2C"/>
<path d="M617.586 469.547C609.664 469.547 602.539 468.234 596.211 465.609C589.93 462.938 584.727 459.234 580.602 454.5C576.523 449.719 573.383 444.07 571.18 437.555C569.023 431.039 567.945 423.891 567.945 416.109C567.945 405.609 569.938 396.328 573.922 388.266C577.906 380.203 583.836 373.852 591.711 369.211C599.586 364.57 608.914 362.25 619.695 362.25C631.648 362.25 642.148 364.969 651.195 370.406L646.555 380.461C637.836 375.445 628.93 372.938 619.836 372.938C613.508 372.938 607.836 374.039 602.82 376.242C597.852 378.398 593.773 381.422 590.586 385.312C587.445 389.156 585.031 393.703 583.344 398.953C581.703 404.156 580.883 409.875 580.883 416.109C580.883 429.328 584.164 439.781 590.727 447.469C597.336 455.109 607.062 458.93 619.906 458.93C627.219 458.93 634.648 457.453 642.195 454.5V424.828H617.656L618.078 414.211H653.586V461.742C647.68 464.555 641.961 466.57 636.43 467.789C630.945 468.961 624.664 469.547 617.586 469.547ZM717.289 405.141C713.867 401.016 709.156 398.953 703.156 398.953C697.156 398.953 692.258 401.086 688.461 405.352C684.664 409.57 682.438 415.359 681.781 422.719H722.492C722.492 415.078 720.758 409.219 717.289 405.141ZM705.477 469.617C694.273 469.617 685.438 466.055 678.969 458.93C672.547 451.805 669.336 442.055 669.336 429.68C669.336 417.727 672.453 408.047 678.688 400.641C684.922 393.188 693.125 389.391 703.297 389.25C712.859 389.25 720.43 392.531 726.008 399.094C731.633 405.609 734.445 414.328 734.445 425.25C734.445 425.812 734.422 426.844 734.375 428.344C734.375 429.844 734.375 430.922 734.375 431.578H681.43C681.57 440.344 683.82 447.188 688.18 452.109C692.586 456.984 698.492 459.422 705.898 459.422C714.055 459.422 722.234 457.266 730.438 452.953L732.266 462.445C724.438 467.227 715.508 469.617 705.477 469.617ZM750.758 468V390.867H760.602L762.078 401.906C765.125 398.109 768.922 395.062 773.469 392.766C778.062 390.422 783.008 389.25 788.305 389.25C797.211 389.25 803.797 391.758 808.062 396.773C812.328 401.742 814.461 409.406 814.461 419.766V468H802.719C802.719 437.062 802.695 420.492 802.648 418.289C802.461 411.727 801.125 406.922 798.641 403.875C796.203 400.828 792.102 399.305 786.336 399.305C780.289 399.305 775.25 400.758 771.219 403.664C767.188 406.57 764.562 410.344 763.344 414.984C762.875 418.125 762.641 421.734 762.641 425.812V468H750.758ZM878.445 405.141C875.023 401.016 870.312 398.953 864.312 398.953C858.312 398.953 853.414 401.086 849.617 405.352C845.82 409.57 843.594 415.359 842.938 422.719H883.648C883.648 415.078 881.914 409.219 878.445 405.141ZM866.633 469.617C855.43 469.617 846.594 466.055 840.125 458.93C833.703 451.805 830.492 442.055 830.492 429.68C830.492 417.727 833.609 408.047 839.844 400.641C846.078 393.188 854.281 389.391 864.453 389.25C874.016 389.25 881.586 392.531 887.164 399.094C892.789 405.609 895.602 414.328 895.602 425.25C895.602 425.812 895.578 426.844 895.531 428.344C895.531 429.844 895.531 430.922 895.531 431.578H842.586C842.727 440.344 844.977 447.188 849.336 452.109C853.742 456.984 859.648 459.422 867.055 459.422C875.211 459.422 883.391 457.266 891.594 452.953L893.422 462.445C885.594 467.227 876.664 469.617 866.633 469.617ZM946.508 390.164C948.617 390.164 950.539 390.305 952.273 390.586L951.852 401.414C949.695 401.039 947.82 400.852 946.227 400.852C939.664 400.852 934.32 403.148 930.195 407.742C926.117 412.289 924.078 417.938 924.078 424.688V468H912.336C912.289 420.656 912.266 394.945 912.266 390.867H922.039L923.164 404.719C925.836 400.359 929.234 396.844 933.359 394.172C937.484 391.5 941.867 390.164 946.508 390.164ZM985.25 460.125C990.828 460.125 995.727 458.602 999.945 455.555C1004.21 452.461 1006.95 448.312 1008.17 443.109V430.102C1007.94 430.102 1006.51 430.219 1003.88 430.453C1001.3 430.688 999.617 430.828 998.82 430.875C988.648 431.766 981.547 433.43 977.516 435.867C973.531 438.305 971.539 442.219 971.539 447.609C971.539 451.734 972.758 454.852 975.195 456.961C977.633 459.07 980.984 460.125 985.25 460.125ZM1010.77 468C1010.07 465 1009.39 461.766 1008.73 458.297C1004.47 462.562 1000.46 465.516 996.711 467.156C992.961 468.797 988.555 469.617 983.492 469.617C976.273 469.617 970.461 467.742 966.055 463.992C961.695 460.195 959.516 454.758 959.516 447.68C959.516 439.805 962.492 433.969 968.445 430.172C974.445 426.375 983.07 424.008 994.32 423.07C995.867 422.93 998.188 422.742 1001.28 422.508C1004.42 422.227 1006.77 422.016 1008.31 421.875V415.055C1008.31 409.617 1007.05 405.586 1004.52 402.961C1001.98 400.336 998 399.023 992.562 399.023C984.969 399.023 977.305 400.898 969.57 404.648C969.336 404.086 968.727 402.469 967.742 399.797C966.758 397.078 966.242 395.672 966.195 395.578C969.617 393.656 973.672 392.133 978.359 391.008C983.094 389.836 987.898 389.25 992.773 389.25C1002.38 389.25 1009.3 391.359 1013.52 395.578C1017.78 399.75 1019.91 406.875 1019.91 416.953V468H1010.77ZM1064.77 469.406C1057.18 469.406 1051.79 467.555 1048.6 463.852C1045.41 460.148 1043.73 454.172 1043.54 445.922V399.586H1032.08L1032.57 391.852L1043.47 390.867L1047.48 373.219L1055.21 372.938V390.867H1076.66V399.586H1055.21V443.812C1055.21 449.672 1056.1 453.797 1057.88 456.188C1059.66 458.578 1062.71 459.773 1067.02 459.773C1068.57 459.773 1071.92 459.398 1077.08 458.648L1077.57 467.93C1071.99 468.914 1067.73 469.406 1064.77 469.406ZM1097.82 429.609C1097.82 438.75 1099.84 446.086 1103.87 451.617C1107.95 457.102 1113.88 459.844 1121.66 459.844C1129.34 459.844 1135.13 457.102 1139.02 451.617C1142.96 446.133 1144.93 438.75 1144.93 429.469C1144.93 420.047 1142.98 412.641 1139.09 407.25C1135.25 401.812 1129.37 399.094 1121.45 399.094C1113.76 399.094 1107.9 401.859 1103.87 407.391C1099.84 412.922 1097.82 420.328 1097.82 429.609ZM1157.09 429.398C1157.09 441.352 1153.91 451.055 1147.53 458.508C1141.16 465.914 1132.34 469.617 1121.09 469.617C1110.27 469.617 1101.64 465.867 1095.22 458.367C1088.84 450.867 1085.66 441.234 1085.66 429.469C1085.66 417.469 1088.87 407.766 1095.29 400.359C1101.71 392.953 1110.52 389.25 1121.73 389.25C1132.74 389.25 1141.39 392.977 1147.67 400.43C1153.95 407.836 1157.09 417.492 1157.09 429.398ZM1208.35 390.164C1210.46 390.164 1212.38 390.305 1214.12 390.586L1213.7 401.414C1211.54 401.039 1209.66 400.852 1208.07 400.852C1201.51 400.852 1196.16 403.148 1192.04 407.742C1187.96 412.289 1185.92 417.938 1185.92 424.688V468H1174.18C1174.13 420.656 1174.11 394.945 1174.11 390.867H1183.88L1185.01 404.719C1187.68 400.359 1191.08 396.844 1195.2 394.172C1199.33 391.5 1203.71 390.164 1208.35 390.164Z" fill="#EE4C2C"/>
</svg>
