<?xml version="1.0" encoding="UTF-8"?><svg id="Layer_2" xmlns="http://www.w3.org/2000/svg" viewBox="0 0 388.24 355.03"><defs><style>.cls-1{fill:#eab54e;}.cls-2{fill:#ba18dd;}.cls-3{fill:#20aaa1;}</style></defs><g id="Layer_1-2"><g><rect class="cls-3" x="290.12" y="108.43" width="98.12" height="32.11" rx="16.05" ry="16.05"/><rect class="cls-3" x="291.33" y="196.42" width="78.69" height="32.11" rx="16.05" ry="16.05"/><rect class="cls-3" x="51.04" y="112.31" width="211.04" height="32.11" rx="16.05" ry="16.05"/><rect class="cls-3" x="35.66" y="71.21" width="153.58" height="32.11" rx="16.05" ry="16.05"/><rect class="cls-3" x="0" y="153.39" width="72.3" height="32.11" rx="16.05" ry="16.05"/><rect class="cls-3" x="130.5" y="29.96" width="90.32" height="32.11" rx="16.05" ry="16.05"/><rect class="cls-3" x="169.85" y="153.28" width="178.95" height="32.11" rx="16.05" ry="16.05"/><path class="cls-2" d="M252.41,317.08c28.69-6.6,48.29-18.08,61.71-36.15,7.49-10.09,12.41-22.03,15.79-38.45l-37.8,.03c-3.12,13.55-11.43,23.92-24.73,30.85-15.65,8.16-32.85,10-49.49,11.79-1.29,.14-2.59,.28-3.88,.42-4.88,.54-5.76-3.25-6.18-5.07-4.09-17.61-14.18-30.91-29.98-39.54-1.25-.68-2.95-1.81-3.31-3.71-.35-1.85,.74-3.45,1.73-4.63,7.9-9.45,12.43-20.79,15.73-31.02l-39.22,.02c-5.01,10.56-13.38,18.22-25.55,23.39-17.74,7.54-36.29,8.5-55.13,2.87-14.18-4.24-22.72-13.05-25.4-26.2l-37.08-.06c4.68,33.7,24.52,54.98,59.01,63.28,16.47,3.96,33.66,3.71,50.28,3.48l2.59-.04c1.75-.02,3.5-.07,5.25-.11,2.56-.07,5.16-.13,7.76-.13,5.49,0,11.05,.3,16.57,1.52,14.1,3.11,21.39,11.99,21.66,26.38,.23,12.12-4.14,23.26-13.37,34.07-7.34,8.59-16.3,15.36-24.96,21.91-1.34,1.01-2.7,2.04-4.05,3.07l55.93-.07c7.93-9.1,13.5-18,17.01-27.16,1.73-4.52,4.78-5.3,7.83-5.48,12.34-.73,26.9-1.92,41.29-5.23Z"/><path class="cls-1" d="M289.62,92.03c25.65,.12,46.51-20.07,46.71-45.22C336.54,21.15,316.06,.16,290.68,0c-25.63-.16-46.74,20.49-46.77,45.75-.03,25.42,20.46,46.17,45.71,46.29Z"/></g></g></svg>
